<svg xmlns="http://www.w3.org/2000/svg" xmlns:xlink="http://www.w3.org/1999/xlink" width="145" height="164" version="1.1" viewBox="0 0 145 164"><title>austin-art</title><desc>Created with Sketch.</desc><defs><path id="path-1" d="M72,163 C32.2361379,163 2.27373675e-13,130.843613 2.27373675e-13,91.178125 C2.27373675e-13,51.5126371 23.3997241,-2.26207941e-15 63.1635862,0 C76.6248904,-2.26207941e-15 91.3503666,2.75452872 102.12766,9.16875 C123.185825,21.7017427 144,64.9406385 144,91.178125 C144,130.843613 111.763862,163 72,163 Z"/></defs><g id="meetups" fill="none" fill-rule="evenodd" stroke="none" stroke-width="1"><g id="austin-art" transform="translate(0.000000, -2.000000)"><g id="Group-2" transform="translate(1.000000, 0.000000)"><mask id="mask-2" fill="#fff"><use xlink:href="#path-1"/></mask><polyline id="Path-24" stroke="#ED1C40" stroke-width="2" points="48 73 56 75 69 74" mask="url(#mask-2)"/><polyline id="Path-24-Copy" stroke="#ED1C40" stroke-width="2" points="48 86 56 88 69 87" mask="url(#mask-2)"/><polyline id="Path-24-Copy-2" stroke="#ED1C40" stroke-width="2" points="48 98 56 100 71 99" mask="url(#mask-2)"/><g stroke-width="2" mask="url(#mask-2)"><g transform="translate(18.361702, 4.131250)"><path id="Path-4" stroke="#313D3E" d="M36.1787234,112.025843 L34.8510638,220.737313"/><polyline id="Path-5" stroke="#313D3E" points="118.494 149.81 112.851 147.49 111.855 132.575 109.864 131.581"/><path id="Path-6" stroke="#313D3E" d="M109.531915,108.711469 L100.902128,106.391407"/><path id="Path-7" stroke="#313D3E" d="M0.995744681,100.756972 L4.9787234,100.094097"/><polyline id="Path-8" stroke="#ED1C40" points="11.617 52.699 15.268 40.767 18.919 42.755 15.268 52.699"/><polyline id="Path-9" stroke="#ED1C40" points="18.255 42.755 18.919 40.767 28.877 40.104 27.881 52.699"/><polyline id="Path-10" stroke="#ED1C40" points="20.579 40.435 25.557 25.852 29.54 32.481"/><path id="Path-11" stroke="#ED1C40" d="M25.5574468,25.5206803 L30.5361702,28.8350543"/><polyline id="Path-13" stroke="#ED1C40" points="28.213 46.733 40.494 39.11 57.753 45.075"/><polyline id="Path-14" stroke="#ED1C40" points="57.421 51.373 58.085 38.447 78.332 39.11 81.319 52.036"/><polyline id="Path-15" stroke="#ED1C40" points="100.902 108.711 101.234 69.933 90.945 39.772 78.996 44.081"/><polyline id="Path-16" stroke="#ED1C40" points="85.302 41.43 78 23.863 66.383 31.487 68.043 38.778"/><polyline id="Path-17" stroke="#ED1C40" points="73.685 26.515 62.068 .994 58.749 9.612 62.732 38.778"/><polyline id="Path-18" stroke="#ED1C40" points="59.081 9.943 53.77 3.314 51.779 6.297"/><polyline id="Path-19" stroke="#ED1C40" points="42.153 39.441 43.813 23.201 34.519 32.149"/><path id="Path-20" stroke="#ED1C40" d="M58.0851064,30.8236788 L43.812766,22.5377436"/><path id="Path-21" stroke="#ED1C40" d="M48.1276596,0 L45.4723404,23.5320558"/><polyline id="Path" stroke="#ED1C40" points="38.17 111.363 37.506 70.596 40.826 39.11"/><polyline id="Path-12" stroke="#ED1C40" points="28.213 39.772 30.536 27.509 40.162 1.326 42.485 9.28"/><polyline id="Path" stroke="#ED1C40" points="31.864 44.413 34.519 30.824 43.149 8.949 48.128 0 54.102 9.28 57.753 30.824 59.081 38.115"/><polygon id="Path-3" stroke="#313D3E" points="10.953 53.03 29.209 53.03 28.545 60.984 28.545 94.128 25.226 93.797 25.557 108.711 35.515 112.026 53.438 111.694 54.102 95.454 51.779 94.46 50.783 59.659 51.779 52.036 90.281 52.367 92.272 61.647 92.272 93.465 95.923 94.46 95.26 109.043 109.532 108.711 110.196 150.804 118.826 150.141 119.157 221.069 .328 221.069 .996 101.088 4.979 102.414 5.311 89.82 8.298 90.151 8.298 59.327"/></g></g><polyline id="Path-27" stroke="#313D3E" stroke-width="2" points="19 129 54 146 128 138" mask="url(#mask-2)"/><polyline id="Path-27-Copy" stroke="#313D3E" stroke-width="2" points="19 138 54 156 128 148" mask="url(#mask-2)"/><polyline id="Path-27-Copy-2" stroke="#313D3E" stroke-width="2" points="19 121 54 136 128 128" mask="url(#mask-2)"/><polyline id="Path-27-Copy-3" stroke="#313D3E" stroke-width="2" points="19 112 54 126 128 118" mask="url(#mask-2)"/><polyline id="Path-27-Copy-4" stroke="#313D3E" stroke-width="2" points="19 105 54 117 129 113" mask="url(#mask-2)"/></g><path id="Shape-Copy" stroke="#313D3E" stroke-linecap="round" stroke-linejoin="round" stroke-width="3" d="M38.6966149,163.537143 C16.8290885,151.566343 2,128.34203 2,101.654855 C2,62.7194071 33.5645517,31.1548554 72.5,31.1548554 C111.435448,31.1548554 143,62.7194071 143,101.654855 C143,126.933473 129.694969,149.105124 109.705941,161.548773" transform="translate(72.500000, 97.345999) rotate(-179.000000) translate(-72.500000, -97.345999)"/><polyline id="Path-22" stroke="#313D3E" stroke-width="2" points="78 56 82 65 82 114"/><polyline id="Path-22-Copy" stroke="#313D3E" stroke-width="2" points="88 56 92 65 92 114"/><polyline id="Path-22-Copy-2" stroke="#313D3E" stroke-width="2" points="98 56 102 65 102 114"/><polyline id="Path-23" stroke="#313D3E" stroke-width="2" points="43 58 40 63 40 110"/><polyline id="Path-23-Copy" stroke="#313D3E" stroke-width="2" points="36 58 33 63 33 110"/></g></g></svg>