<svg xmlns="http://www.w3.org/2000/svg" xmlns:xlink="http://www.w3.org/1999/xlink" width="164" height="157" version="1.1" viewBox="0 0 164 157"><title>okc-art</title><desc>Created with Sketch.</desc><defs><path id="path-1" d="M40.5425075,9.02975186 L65.5724561,79.741015 L81.7552678,86.8959774 L108.206688,102.114856 L143.784453,107.174844 C143.313556,108.194303 142.818875,109.204934 142.300463,110.205882 C138.061385,118.390691 122.081169,134.646159 121.57837,135.03641 C90.2862209,159.324095 45.0939286,155.189634 18.7857383,124.925523 C-8.45622817,93.5872251 -5.13537633,46.0968311 26.2029213,18.8548646 C30.6875658,14.9564226 35.5029864,11.6838715 40.5425075,9.02975186 Z M54.5764326,3.3724216 C81.8397792,-4.51765277 112.42905,3.44352816 132.273579,26.2720476 C148.299882,44.7081997 153.748681,68.7344399 149.138224,90.9395045 L147.612789,91.1035066 L110.785931,78.3521859 L88.8505442,73.8022953 L72.6889474,48.5688412 L58.0361859,9.44431203 L54.5764326,3.3724216 Z"/><path id="path-3" d="M121.424184,134.934998 C90.132035,159.222683 44.9397427,155.088221 18.6315524,124.824111 C-8.61041408,93.4858129 -5.28956223,45.9954189 26.0487354,18.7534524 C57.387033,-8.48851415 104.877427,-5.1676623 132.119394,26.1706353 C152.9467,50.1297109 155.909842,83.529791 142.146277,110.10447 C137.907199,118.289279 121.926983,134.544746 121.424184,134.934998 Z"/></defs><g id="meetups" fill="none" fill-rule="evenodd" stroke="none" stroke-width="1"><g id="okc-art" transform="translate(-1.000000, 1.000000)"><g id="Shape-Copy-3" transform="translate(0.000000, 8.000000)"><mask id="mask-2" fill="#fff"><use xlink:href="#path-1"/></mask><path id="Shape-Copy" stroke="#313D3E" stroke-linecap="round" stroke-linejoin="round" stroke-width="3" d="M144,75.5 C144,114.435448 112.435448,146 73.5,146 C34.5645517,146 3,114.435448 3,75.5 C3,36.5645517 34.5645517,5 73.5,5 C112.435448,5 144,36.5645517 144,75.5 L144,75.5 Z" mask="url(#mask-2)"/></g><g id="Group-5"><mask id="mask-4" fill="#fff"><use xlink:href="#path-3"/></mask><g stroke="#313D3E" stroke-linecap="round" stroke-linejoin="round" stroke-width="2" mask="url(#mask-4)"><g transform="translate(-158.484375, 104.813642)"><path id="Path-25" d="M230.75075,12.5108405 L0,112.229598"/><path id="Path-34" d="M252.797,147.186358 L253.693189,11.7749087"/><polyline id="Path-35" points="8.451 19.502 115.008 13.983 309.382 11.775 301.299 45.26 300.564 57.771 305.708 70.281 367.438 137.987"/><path id="Path-36" d="M200.988313,138.723143 L249.8575,12.1428746"/><path id="Path-37" d="M148.44475,140.930938 L246.183125,12.5108405"/><path id="Path-38" d="M95.1663125,141.298904 L241.773875,12.8788064"/><path id="Path-39" d="M4.40925,136.515347 L238.0995,12.5108405"/><path id="Path-40" d="M6.613875,61.4503047 L201.35575,13.2467723"/><path id="Path-41" d="M7.7161875,47.4676006 L195.47675,12.8788064"/><path id="Path-42" d="M224.792074,2.64155095 L271.424187,4.78355665"/><polyline id="Path-42-Copy" points="14.451 8.095 112.557 0 207.087 2.186"/><polygon id="Path-43" points="200.621 13.247 198.416 26.494 207.235 22.814 204.663 13.247"/><polygon id="Path-45" points="264.922 12.511 264.555 23.182 270.801 23.918 271.169 12.511"/></g></g></g><g id="Group-2" stroke="#ED1C40" stroke-width="2" transform="translate(101.775848, 62.683280) rotate(3.000000) translate(-101.775848, -62.683280) translate(39.775848, 8.183280)"><polygon id="Path-14" points="0 0 32.621 78.95 14.121 108.557 40.665 82.029 69.73 94.726 106.352 97.998 116.721 97.873 123.209 92.554 107.479 95.089 69.405 84.078 44.03 78.352 42.273 44.836 38.341 37.755 37.805 29.969 32.238 17.323 34.677 68.086 9.205 12.857 3.932 4.618"/><polyline id="Path-15" points="32.578 79.107 40.697 81.849 34.683 68.089"/><polyline id="Path-16" points="38.43 38.117 40.948 81.849 116.81 97.873"/></g></g></g></svg>